<?xml version="1.0" encoding="utf-8"?>
<!-- Generator: Adobe Illustrator 27.3.1, SVG Export Plug-In . SVG Version: 6.00 Build 0)  -->
<svg version="1.1" id="Layer_1" xmlns="http://www.w3.org/2000/svg" xmlns:xlink="http://www.w3.org/1999/xlink" x="0px" y="0px"
	 viewBox="0 0 170 170" style="enable-background:new 0 0 170 170;" xml:space="preserve">
<style type="text/css">
	.st0{fill:#1E3A8A;}
	.st1{fill:none;stroke:#00E676;stroke-width:17.5203;stroke-linecap:round;stroke-linejoin:round;stroke-miterlimit:10;}
</style>
<path class="st0" d="M139.9,170H30.1C13.5,170,0,156.5,0,139.9V30.1C0,13.5,13.5,0,30.1,0h109.9C156.5,0,170,13.5,170,30.1v109.9
	C170,156.5,156.5,170,139.9,170z"/>
<path class="st1" d="M85,23.8c-33.8,0-61.2,27.4-61.2,61.2s27.4,61.2,61.2,61.2s61.2-27.4,61.2-61.2c0-10.5-2.6-20.4-7.3-29
	c-4.7,2.4-52.5,38.8-52.5,38.8l-27.8-25"/>
</svg>
