<?xml version="1.0" encoding="utf-8"?>
<!-- Generator: Adobe Illustrator 27.3.1, SVG Export Plug-In . SVG Version: 6.00 Build 0)  -->
<svg version="1.1" id="Layer_1" xmlns="http://www.w3.org/2000/svg" xmlns:xlink="http://www.w3.org/1999/xlink" x="0px" y="0px"
	 viewBox="0 0 427 100" style="enable-background:new 0 0 427 100;" xml:space="preserve">
<style type="text/css">
	.st0{fill:#FFFFFF;}
	.st1{fill:#1E3A8A;}
	.st2{fill:none;stroke:#00E676;stroke-width:6.3;stroke-miterlimit:10;}
	.st3{fill:none;stroke:#00E676;stroke-width:6.3;stroke-linecap:round;stroke-linejoin:round;stroke-miterlimit:10;}
</style>
<rect class="st0" width="427" height="100"/>
<path class="st1" d="M44.3,25c0.8,0,1.6,0.3,2.1,0.9c0.6,0.6,0.8,1.3,0.8,2.1v0.1c0,0.8-0.3,1.5-0.8,2.1c-0.6,0.6-1.3,0.9-2.1,0.9
	h-2.8c-3.5,0-6.4,1.2-8.8,3.7c-2.4,2.4-3.6,5.4-3.7,8.8v28.8c0,0.8-0.3,1.5-0.9,2.1s-1.3,0.9-2.1,0.9h-0.1c-0.8,0-1.5-0.3-2.1-0.9
	s-0.9-1.3-0.9-2.1V43.6c0.1-5.2,1.9-9.6,5.4-13.2c3.6-3.6,8-5.4,13.2-5.4H44.3z"/>
<path class="st1" d="M99.3,39.7c0.4,0.7,0.4,1.5,0.1,2.3c-0.3,0.7-0.8,1.3-1.6,1.7c-4.6,2.1-10.5,4.8-18,8.1
	c-9.2,4.2-15.8,7.1-19.6,8.8c4.6,5.9,9.9,8.8,16.2,8.8c4.1,0,7.9-1.2,11.2-3.7c3.2-2.3,5.5-5.4,6.8-9.2c0.5-1.4,1.5-2.1,2.9-2.1
	c1,0,1.9,0.4,2.5,1.3c0.6,0.8,0.7,1.8,0.3,2.7c-1.7,5-4.7,9-9,12.1c-4.4,3.2-9.3,4.7-14.7,4.7c-7,0-12.9-2.5-17.8-7.4
	s-7.4-10.9-7.4-17.8c0-7,2.5-12.9,7.4-17.8c4.9-4.9,10.9-7.4,17.8-7.4c5,0,9.6,1.4,13.8,4.1C94.2,31.7,97.3,35.3,99.3,39.7z
	 M76.4,31.2c-5.3,0-9.8,1.9-13.5,5.6c-3.7,3.7-5.6,8.3-5.6,13.5c0,0.9,0.2,2.5,0.5,4.7l34.4-15.6C87.6,33.9,82.3,31.2,76.4,31.2z"/>
<path class="st1" d="M148,31.1c0,1.6-0.6,3-1.9,4.2l-32.9,34h32c0.8,0,1.5,0.3,2.1,0.8c0.6,0.6,0.9,1.3,0.9,2.1v0.1
	c0,0.8-0.3,1.6-0.9,2.1c-0.6,0.6-1.3,0.8-2.1,0.8h-31.5c-2.7,0.1-4.6-1.2-5.7-3.7c-1.1-2.5-0.7-4.7,1.3-6.7l32.9-33.9h-29.9
	c-0.8,0-1.5-0.3-2.1-0.9s-0.9-1.3-0.9-2.1v-0.1c0-0.8,0.3-1.5,0.9-2.1s1.3-0.9,2.1-0.9h29.3c2.7-0.1,4.6,1.2,5.7,3.7
	C147.8,29.5,148,30.3,148,31.1z"/>
<path class="st1" d="M202.8,39.7c0.4,0.7,0.4,1.5,0.1,2.3c-0.3,0.7-0.8,1.3-1.6,1.7c-4.6,2.1-10.5,4.8-18,8.1
	c-9.2,4.2-15.8,7.1-19.6,8.8c4.6,5.9,9.9,8.8,16.2,8.8c4.1,0,7.9-1.2,11.2-3.7c3.2-2.3,5.5-5.4,6.8-9.2c0.5-1.4,1.5-2.1,2.9-2.1
	c1,0,1.9,0.4,2.5,1.3c0.6,0.8,0.7,1.8,0.3,2.7c-1.7,5-4.7,9-9,12.1c-4.4,3.2-9.3,4.7-14.7,4.7c-7,0-12.9-2.5-17.8-7.4
	s-7.4-10.9-7.4-17.8c0-7,2.5-12.9,7.4-17.8c4.9-4.9,10.9-7.4,17.8-7.4c5,0,9.6,1.4,13.8,4.1C197.7,31.7,200.8,35.3,202.8,39.7z
	 M179.9,31.2c-5.3,0-9.8,1.9-13.5,5.6c-3.7,3.7-5.6,8.3-5.6,13.5c0,0.9,0.2,2.5,0.5,4.7l34.4-15.6C191.1,33.9,185.8,31.2,179.9,31.2
	z"/>
<path class="st1" d="M234.1,25c0.8,0,1.6,0.3,2.1,0.9c0.6,0.6,0.8,1.3,0.8,2.1v0.1c0,0.8-0.3,1.5-0.8,2.1c-0.6,0.6-1.3,0.9-2.1,0.9
	h-2.8c-3.5,0-6.4,1.2-8.8,3.7c-2.4,2.4-3.6,5.4-3.7,8.8v28.8c0,0.8-0.3,1.5-0.9,2.1s-1.3,0.9-2.1,0.9h-0.1c-0.8,0-1.5-0.3-2.1-0.9
	s-0.9-1.3-0.9-2.1V43.6c0.1-5.2,1.9-9.6,5.4-13.2c3.6-3.6,8-5.4,13.2-5.4H234.1z"/>
<path class="st1" d="M270.4,67.5c0.5,0,1-0.7,1.6-2l0.2-0.6l16.4-38.1c0.5-1.2,1.4-1.9,2.7-1.9h0.1c1.1,0,1.9,0.4,2.5,1.3
	c0.6,0.9,0.7,1.9,0.2,2.8l-18.2,42.4c-1.1,2.5-3,3.8-5.6,3.8s-4.5-1.3-5.6-3.8l-18.2-42.4c-0.4-1-0.3-1.9,0.2-2.8
	c0.6-0.9,1.4-1.3,2.5-1.3h0.1c1.3,0,2.2,0.6,2.7,1.9l16.4,38.1l0.2,0.6C269.4,66.8,269.9,67.5,270.4,67.5z"/>
<path class="st1" d="M346.7,39.7c0.4,0.7,0.4,1.5,0.1,2.3c-0.3,0.7-0.8,1.3-1.6,1.7c-4.6,2.1-10.5,4.8-18,8.1
	c-9.2,4.2-15.8,7.1-19.6,8.8c4.6,5.9,9.9,8.8,16.2,8.8c4.1,0,7.9-1.2,11.2-3.7c3.2-2.3,5.5-5.4,6.8-9.2c0.5-1.4,1.5-2.1,2.9-2.1
	c1,0,1.9,0.4,2.5,1.3c0.6,0.8,0.7,1.8,0.3,2.7c-1.7,5-4.7,9-9,12.1c-4.4,3.2-9.3,4.7-14.7,4.7c-7,0-12.9-2.5-17.8-7.4
	c-4.9-4.9-7.4-10.9-7.4-17.8c0-7,2.5-12.9,7.4-17.8c4.9-4.9,10.9-7.4,17.8-7.4c5,0,9.6,1.4,13.8,4.1
	C341.7,31.7,344.7,35.3,346.7,39.7z M323.8,31.2c-5.3,0-9.8,1.9-13.5,5.6c-3.7,3.7-5.6,8.3-5.6,13.5c0,0.9,0.2,2.5,0.5,4.7
	l34.4-15.6C335,33.9,329.8,31.2,323.8,31.2z"/>
<path class="st2" d="M380.5,28.5"/>
<path class="st2" d="M354.5,80"/>
<path class="st2" d="M407.5,27"/>
<path class="st2" d="M407.5,80"/>
<path class="st2" d="M354.5,27"/>
<path class="st2" d="M383.4,62.4"/>
<path class="st2" d="M371.4,55.4"/>
<path class="st3" d="M380.5,28.5c-12.2,0-22,9.8-22,22s9.8,22,22,22s22-9.8,22-22c0-3.8-1-7.3-2.6-10.4C398.2,40.9,381,54,381,54
	s-10-9-10-9"/>
</svg>
